<svg xmlns="http://www.w3.org/2000/svg" width="71.766" height="57.667" viewBox="0 0 71.766 57.667">
  <g id="_11" data-name="11" transform="translate(0 -50.294)">
    <g id="Grupo_1240240" data-name="Grupo 1240240" transform="translate(0 50.294)">
      <path id="Trazado_1182245" data-name="Trazado 1182245" d="M69.437,86.613a1.051,1.051,0,0,0-1.744,1.174,11.6,11.6,0,1,1-3.187-3.177,1.051,1.051,0,1,0,1.169-1.747,13.722,13.722,0,0,0-10.35-2.033V73.443a1.754,1.754,0,0,0-1.752-1.752H49.212v-9.8a1.051,1.051,0,0,0-2.1,0v9.8H32.251V52.4H47.11v4.584a1.051,1.051,0,1,0,2.1,0V52.046a1.754,1.754,0,0,0-1.752-1.752H8.045a1.754,1.754,0,0,0-1.752,1.752V71.691H1.752A1.754,1.754,0,0,0,0,73.443V97.574a1.754,1.754,0,0,0,1.752,1.752H8.41a1.051,1.051,0,1,0,0-2.1H2.1V73.794H13.558v8.418a1.473,1.473,0,0,0,1.472,1.472h6.639a1.473,1.473,0,0,0,1.472-1.472V73.794H34.6v23.43H13.316a1.051,1.051,0,1,0,0,2.1H45.332A13.7,13.7,0,1,0,69.437,86.613ZM16.968,52.4h4.609V59.1H16.968Zm4.07,29.184H15.66V73.794h5.377Zm9.111-9.889H8.4V52.4h6.469v7.339a1.473,1.473,0,0,0,1.472,1.472h5.871a1.473,1.473,0,0,0,1.472-1.472V52.4h6.469ZM36.7,97.224V73.794H53.223v7.644a13.706,13.706,0,0,0-8.54,15.787Z" transform="translate(0 -50.294)" fill="#3fa8fe"/>
      <path id="Trazado_1182246" data-name="Trazado 1182246" d="M376.449,332.2l-6.88,6.88-4.394-4.395a1.051,1.051,0,1,0-1.487,1.487l5.138,5.138a1.051,1.051,0,0,0,1.487,0l7.623-7.623a1.051,1.051,0,1,0-1.487-1.487Z" transform="translate(-312.446 -292.42)" fill="#3fa8fe"/>
    </g>
  </g>
</svg>
